<?xml version="1.0" encoding="utf-8"?>
<svg version="1.1" xmlns:xlink="http://www.w3.org/1999/xlink" width="20px" height="20px" xmlns="http://www.w3.org/2000/svg">
  <g transform="matrix(1 0 0 1 -266 -503 )">
    <path d="M 13.0859375 5.24739583333333  C 13.2508680555556 5.41232638888889  13.3333333333333 5.60763888888889  13.3333333333333 5.83333333333333  L 13.3333333333333 14.1666666666667  C 13.3333333333333 14.3923611111111  13.2508680555556 14.5876736111111  13.0859375 14.7526041666667  C 12.9210069444444 14.9175347222222  12.7256944444444 15  12.5 15  C 12.3263888888889 15  12.1657986111111 14.9479166666667  12.0182291666667 14.84375  L 6.18489583333333 10.6770833333333  C 5.95052083333333 10.5121527777778  5.83333333333333 10.2864583333333  5.83333333333333 10  C 5.83333333333333 9.71354166666667  5.95052083333333 9.48784722222222  6.18489583333333 9.32291666666667  L 12.0182291666667 5.15625  C 12.1657986111111 5.05208333333333  12.3263888888889 5  12.5 5  C 12.7256944444444 5  12.9210069444444 5.08246527777778  13.0859375 5.24739583333333  Z M 16.54296875 16.54296875  C 16.6254340277778 16.4605034722222  16.6666666666667 16.3628472222222  16.6666666666667 16.25  L 16.6666666666667 3.75  C 16.6666666666667 3.63715277777778  16.6254340277778 3.53949652777778  16.54296875 3.45703125  C 16.4605034722222 3.37456597222222  16.3628472222222 3.33333333333333  16.25 3.33333333333333  L 3.75 3.33333333333333  C 3.63715277777778 3.33333333333333  3.53949652777778 3.37456597222222  3.45703125 3.45703125  C 3.37456597222222 3.53949652777778  3.33333333333333 3.63715277777778  3.33333333333333 3.75  L 3.33333333333333 16.25  C 3.33333333333333 16.3628472222222  3.37456597222222 16.4605034722222  3.45703125 16.54296875  C 3.53949652777778 16.6254340277778  3.63715277777778 16.6666666666667  3.75 16.6666666666667  L 16.25 16.6666666666667  C 16.3628472222222 16.6666666666667  16.4605034722222 16.6254340277778  16.54296875 16.54296875  Z M 18.8997395833333 1.10026041666667  C 19.6332465277778 1.83376736111111  20 2.71701388888889  20 3.75  L 20 16.25  C 20 17.2829861111111  19.6332465277778 18.1662326388889  18.8997395833333 18.8997395833333  C 18.1662326388889 19.6332465277778  17.2829861111111 20  16.25 20  L 3.75 20  C 2.71701388888889 20  1.83376736111111 19.6332465277778  1.10026041666667 18.8997395833333  C 0.366753472222222 18.1662326388889  0 17.2829861111111  0 16.25  L 0 3.75  C 0 2.71701388888889  0.366753472222222 1.83376736111111  1.10026041666667 1.10026041666667  C 1.83376736111111 0.366753472222221  2.71701388888889 0  3.75 0  L 16.25 0  C 17.2829861111111 0  18.1662326388889 0.366753472222221  18.8997395833333 1.10026041666667  Z " fill-rule="nonzero" fill="#000000" stroke="none" transform="matrix(1 0 0 1 266 503 )" />
  </g>
</svg>